<svg width="1080" height="1080" viewBox="0 0 1080 1080" fill="none" xmlns="http://www.w3.org/2000/svg">
<rect width="1080" height="1080" fill="white"/>
<path d="M690.467 409.328C667.318 425.875 453.698 643.188 331.334 666.818C331.334 666.818 260.393 763.709 331.334 761.683C384.296 760.171 450.493 739.002 570.511 646.892C611.254 615.623 642.895 575.794 702.408 532.123C937.229 359.809 713.615 392.78 690.467 409.328Z" fill="#004CBC"/>
<path d="M311.925 395.372C332.376 395.372 350.926 399.653 367.572 408.214C384.457 416.537 399.439 427.001 412.519 439.605L407.524 405.359H514.539V510.754C482.994 537.867 446.438 565.528 398.367 594.565C398.763 591.028 398.964 587.413 398.964 583.718C398.964 568.022 395.396 553.754 388.262 540.912C381.127 528.071 371.496 517.844 359.368 510.234C347.24 502.625 333.804 498.82 319.06 498.819C304.315 498.819 290.878 502.625 278.75 510.234C266.86 517.844 257.347 528.071 250.213 540.912C243.317 553.754 239.868 568.023 239.868 583.718C239.868 599.413 243.436 613.682 250.57 626.524C257.705 639.365 267.217 649.591 279.107 657.201C291.236 664.811 304.553 668.616 319.06 668.616C322.896 668.616 326.643 668.355 330.303 667.84C336.81 667.925 343.211 667.591 349.53 666.856C357.445 672.081 367.905 672.901 376.841 668.089C433.911 637.359 477.783 608.043 514.539 579.508V698.401C513.18 699.385 511.821 700.361 510.457 701.322C493.695 713.138 477.105 722.761 460.973 729.615H459.364V730.288C448.989 734.586 438.809 737.728 428.899 739.557C417.323 741.693 408.889 751.02 407.356 762.075H407.168L402.174 729.971C393.375 742.337 382.198 752.326 368.643 759.936C355.325 767.545 339.749 771.35 321.913 771.35C295.278 771.35 270.308 766.356 247.003 756.368C223.935 746.38 203.602 732.587 186.004 714.989C168.406 697.154 154.613 676.701 144.625 653.634C134.875 630.329 130 605.358 130 578.724C130 553.278 134.638 529.497 143.912 507.381C153.187 485.265 166.147 465.882 182.794 449.235C199.678 432.351 219.06 419.153 240.938 409.641C263.055 400.128 286.717 395.372 311.925 395.372ZM761.654 395.372C796.374 395.372 828.003 403.814 856.54 420.698C885.077 437.583 907.788 460.294 924.673 488.831C941.557 517.131 950 548.522 950 583.004C950 608.925 945.125 633.301 935.375 656.131C925.625 678.961 912.069 699.056 894.709 716.416C877.587 733.538 857.611 746.975 834.781 756.725C812.189 766.475 787.813 771.35 761.654 771.35C742.867 771.35 725.983 767.307 711.001 759.222C696.019 751.136 682.939 740.91 671.762 728.544V762.075H564.747V727.022C587.502 708.756 608.872 688.503 628.12 668.634C649.352 646.717 668.305 624.951 683.945 606.38C685.726 613.184 688.322 619.66 691.738 625.81C698.873 638.651 708.385 648.877 720.275 656.487C732.404 664.097 745.721 667.902 760.228 667.902C774.972 667.902 788.408 664.097 800.536 656.487C812.664 648.877 822.295 638.651 829.43 625.81C836.564 612.968 840.132 598.699 840.132 583.004C840.132 567.546 836.564 553.397 829.43 540.555C822.295 527.713 812.664 517.488 800.536 509.878C788.408 502.03 774.972 498.106 760.228 498.106C745.721 498.106 732.404 502.03 720.275 509.878C719.212 510.558 718.168 511.259 717.144 511.982C708.382 508.824 698.217 510.363 690.674 516.892C685.936 520.992 680.052 527.833 674.545 534.382C668.615 541.434 660.987 550.769 652.684 560.767C635.744 581.164 614.299 606.383 589.881 631.588C581.763 639.967 573.365 648.292 564.747 656.397V537.523C567.417 535.133 570.058 532.748 572.672 530.364C609.027 497.209 637.779 467.236 671.762 436.402V438.178C682.939 425.574 696.019 415.348 711.001 407.5C725.983 399.415 742.867 395.372 761.654 395.372ZM671.762 365.974C631.334 399.351 597.973 432.942 564.747 464.793V227.002H671.762V365.974Z" fill="#004CBC"/>
<path d="M304.23 754.909C458.395 763.493 513.142 702.143 664.687 548.232C664.687 548.232 756.621 440.602 835.101 519.082" stroke="#004CBC" stroke-width="28.4475" stroke-linecap="round"/>
<path d="M304.144 688.585C368.15 695.697 540.783 572.229 697.244 422.88" stroke="#004CBC" stroke-width="28.4475" stroke-linecap="round"/>
<path d="M548.169 544.854C670.138 443.209 697.243 355.121 839.541 422.886" stroke="#004CBC" stroke-width="13.5522" stroke-linecap="round"/>
</svg>
